<svg width="54" height="54" viewBox="0 0 54 54" fill="none" xmlns="http://www.w3.org/2000/svg">
<path d="M11.9805 13.483C11.9805 9.01959 15.6002 5.3999 20.0636 5.3999H33.9348C38.3983 5.3999 42.018 9.01959 42.018 13.483C42.018 16.3096 40.5667 18.7987 38.373 20.2415C40.5667 21.6843 42.018 24.1733 42.018 26.9999C42.018 31.4633 38.3983 35.083 33.9348 35.083H33.7577C31.6652 35.083 29.7583 34.2899 28.3239 32.9821V40.4324C28.3239 44.9549 24.6114 48.5999 20.1058 48.5999C15.6508 48.5999 11.9805 44.9887 11.9805 40.5168C11.9805 37.6902 13.4317 35.2012 15.6255 33.7583C13.4317 32.3155 11.9805 29.8265 11.9805 26.9999C11.9805 24.1733 13.4317 21.6843 15.6255 20.2415C13.4317 18.7987 11.9805 16.3096 11.9805 13.483ZM25.6745 21.5662H20.0636C17.0598 21.5662 14.6298 23.9962 14.6298 26.9999C14.6298 29.9868 17.043 32.4168 20.0298 32.4337H25.6745V21.5662ZM28.3239 26.9999C28.3239 30.0037 30.7539 32.4337 33.7577 32.4337H33.9348C36.9386 32.4337 39.3686 30.0037 39.3686 26.9999C39.3686 23.9962 36.9386 21.5662 33.9348 21.5662H33.7577C30.7539 21.5662 28.3239 23.9962 28.3239 26.9999ZM20.0636 35.083H20.0298C17.043 35.0999 14.6298 37.5299 14.6298 40.5168C14.6298 43.5037 17.0936 45.9505 20.1058 45.9505C23.1686 45.9505 25.6745 43.4699 25.6745 40.424V35.0746H20.0636V35.083ZM20.0636 8.04928C17.0598 8.04928 14.6298 10.4793 14.6298 13.483C14.6298 16.4868 17.0598 18.9168 20.0636 18.9168H25.6745V8.04928H20.0636ZM28.3239 18.9168H33.9348C36.9386 18.9168 39.3686 16.4868 39.3686 13.483C39.3686 10.4793 36.9386 8.04928 33.9348 8.04928H28.3239V18.9168Z" fill="#C5A7DF"/>
</svg>
