<svg width="54" height="54" viewBox="0 0 54 54" fill="none" xmlns="http://www.w3.org/2000/svg">
<path d="M20.072 38.9306C20.072 39.0994 19.878 39.2344 19.6333 39.2344C19.3548 39.2597 19.1608 39.1247 19.1608 38.9306C19.1608 38.7619 19.3548 38.6269 19.5995 38.6269C19.8527 38.6016 20.072 38.7366 20.072 38.9306ZM17.448 38.5509C17.3889 38.7197 17.5577 38.9138 17.8108 38.9644C18.0302 39.0488 18.2833 38.9644 18.3339 38.7956C18.3845 38.6269 18.2242 38.4328 17.9711 38.3569C17.7517 38.2978 17.507 38.3822 17.448 38.5509ZM21.1773 38.4075C20.9327 38.4666 20.7639 38.6269 20.7892 38.821C20.8145 38.9897 21.0339 39.0994 21.287 39.0403C21.5317 38.9813 21.7005 38.821 21.6752 38.6522C21.6498 38.4919 21.422 38.3822 21.1773 38.4075ZM26.7292 6.07501C15.0264 6.07501 6.07422 14.9597 6.07422 26.6625C6.07422 36.0197 11.9636 44.0269 20.3758 46.845C21.4558 47.0391 21.8355 46.3725 21.8355 45.8241C21.8355 45.3009 21.8102 42.4153 21.8102 40.6435C21.8102 40.6435 15.9039 41.9091 14.6636 38.1291C14.6636 38.1291 13.7017 35.6738 12.318 35.0409C12.318 35.0409 10.3858 33.7163 12.453 33.7416C12.453 33.7416 14.5539 33.9103 15.7098 35.9185C17.5577 39.1753 20.6542 38.2388 21.8608 37.6819C22.0548 36.3319 22.6033 35.3953 23.2108 34.8384C18.4942 34.3153 13.7355 33.6319 13.7355 25.515C13.7355 23.1947 14.3767 22.0303 15.7267 20.5453C15.5073 19.9969 14.7902 17.7356 15.9461 14.8163C17.7095 14.2678 21.768 17.0944 21.768 17.0944C23.4555 16.6219 25.2695 16.3772 27.0667 16.3772C28.8639 16.3772 30.678 16.6219 32.3655 17.0944C32.3655 17.0944 36.4239 14.2594 38.1873 14.8163C39.3433 17.7441 38.6261 19.9969 38.4067 20.5453C39.7567 22.0388 40.5836 23.2031 40.5836 25.515C40.5836 33.6572 35.6139 34.3069 30.8973 34.8384C31.6736 35.505 32.3317 36.7706 32.3317 38.7534C32.3317 41.5969 32.3064 45.1153 32.3064 45.8072C32.3064 46.3556 32.6945 47.0222 33.7661 46.8281C42.2036 44.0269 47.9242 36.0197 47.9242 26.6625C47.9242 14.9597 38.432 6.07501 26.7292 6.07501ZM14.2755 35.1759C14.1658 35.2603 14.1911 35.4544 14.3345 35.6147C14.4695 35.7497 14.6636 35.8088 14.7733 35.6991C14.883 35.6147 14.8577 35.4206 14.7142 35.2603C14.5792 35.1253 14.3852 35.0663 14.2755 35.1759ZM13.3642 34.4925C13.3052 34.6022 13.3895 34.7372 13.5583 34.8216C13.6933 34.906 13.862 34.8806 13.9211 34.7625C13.9802 34.6528 13.8958 34.5178 13.727 34.4335C13.5583 34.3828 13.4233 34.4081 13.3642 34.4925ZM16.098 37.4963C15.963 37.6059 16.0136 37.8591 16.2077 38.0194C16.4017 38.2135 16.6464 38.2388 16.7561 38.1038C16.8658 37.9941 16.8152 37.7409 16.6464 37.5806C16.4608 37.3866 16.2077 37.3613 16.098 37.4963ZM15.1361 36.256C15.0011 36.3403 15.0011 36.5597 15.1361 36.7538C15.2711 36.9478 15.4989 37.0322 15.6086 36.9478C15.7436 36.8381 15.7436 36.6188 15.6086 36.4247C15.4905 36.2306 15.2711 36.1463 15.1361 36.256Z" fill="#FFFBF3"/>
</svg>
