<svg width="54" height="54" viewBox="0 0 54 54" fill="none" xmlns="http://www.w3.org/2000/svg">
<path d="M20.072 38.9306C20.072 39.0993 19.878 39.2343 19.6333 39.2343C19.3548 39.2596 19.1608 39.1246 19.1608 38.9306C19.1608 38.7618 19.3548 38.6268 19.5995 38.6268C19.8527 38.6015 20.072 38.7365 20.072 38.9306ZM17.448 38.5509C17.3889 38.7196 17.5577 38.9137 17.8108 38.9643C18.0302 39.0487 18.2833 38.9643 18.3339 38.7956C18.3845 38.6268 18.2242 38.4328 17.9711 38.3568C17.7517 38.2978 17.507 38.3821 17.448 38.5509ZM21.1773 38.4075C20.9327 38.4665 20.7639 38.6268 20.7892 38.8209C20.8145 38.9896 21.0339 39.0993 21.287 39.0403C21.5317 38.9812 21.7005 38.8209 21.6752 38.6521C21.6498 38.4918 21.422 38.3821 21.1773 38.4075ZM26.7292 6.07495C15.0264 6.07495 6.07422 14.9596 6.07422 26.6625C6.07422 36.0196 11.9636 44.0268 20.3758 46.845C21.4558 47.039 21.8355 46.3724 21.8355 45.824C21.8355 45.3009 21.8102 42.4153 21.8102 40.6434C21.8102 40.6434 15.9039 41.909 14.6636 38.129C14.6636 38.129 13.7017 35.6737 12.318 35.0409C12.318 35.0409 10.3858 33.7162 12.453 33.7415C12.453 33.7415 14.5539 33.9103 15.7098 35.9184C17.5577 39.1753 20.6542 38.2387 21.8608 37.6818C22.0548 36.3318 22.6033 35.3953 23.2108 34.8384C18.4942 34.3153 13.7355 33.6318 13.7355 25.515C13.7355 23.1946 14.3767 22.0303 15.7267 20.5453C15.5073 19.9968 14.7902 17.7356 15.9461 14.8162C17.7095 14.2678 21.768 17.0943 21.768 17.0943C23.4555 16.6218 25.2695 16.3771 27.0667 16.3771C28.8639 16.3771 30.678 16.6218 32.3655 17.0943C32.3655 17.0943 36.4239 14.2593 38.1873 14.8162C39.3433 17.744 38.6261 19.9968 38.4067 20.5453C39.7567 22.0387 40.5836 23.2031 40.5836 25.515C40.5836 33.6571 35.6139 34.3068 30.8973 34.8384C31.6736 35.505 32.3317 36.7706 32.3317 38.7534C32.3317 41.5968 32.3064 45.1153 32.3064 45.8071C32.3064 46.3556 32.6945 47.0221 33.7661 46.8281C42.2036 44.0268 47.9242 36.0196 47.9242 26.6625C47.9242 14.9596 38.432 6.07495 26.7292 6.07495ZM14.2755 35.1759C14.1658 35.2603 14.1911 35.4543 14.3345 35.6146C14.4695 35.7496 14.6636 35.8087 14.7733 35.699C14.883 35.6146 14.8577 35.4206 14.7142 35.2603C14.5792 35.1253 14.3852 35.0662 14.2755 35.1759ZM13.3642 34.4925C13.3052 34.6021 13.3895 34.7371 13.5583 34.8215C13.6933 34.9059 13.862 34.8806 13.9211 34.7625C13.9802 34.6528 13.8958 34.5178 13.727 34.4334C13.5583 34.3828 13.4233 34.4081 13.3642 34.4925ZM16.098 37.4962C15.963 37.6059 16.0136 37.859 16.2077 38.0193C16.4017 38.2134 16.6464 38.2387 16.7561 38.1037C16.8658 37.994 16.8152 37.7409 16.6464 37.5806C16.4608 37.3865 16.2077 37.3612 16.098 37.4962ZM15.1361 36.2559C15.0011 36.3403 15.0011 36.5596 15.1361 36.7537C15.2711 36.9478 15.4989 37.0321 15.6086 36.9478C15.7436 36.8381 15.7436 36.6187 15.6086 36.4246C15.4905 36.2306 15.2711 36.1462 15.1361 36.2559Z" fill="#C5A7DF"/>
</svg>
