<svg width="54" height="54" viewBox="0 0 54 54" fill="none" xmlns="http://www.w3.org/2000/svg">
<path d="M16.5624 43.2H8.72398V17.9635H16.5624V43.2ZM12.639 14.521C10.133 14.521 8.09961 12.4453 8.09961 9.9394C8.09961 8.73284 8.58055 7.58534 9.43273 6.73315C10.2849 5.88096 11.4409 5.40002 12.639 5.40002C13.8371 5.40002 14.993 5.88096 15.8452 6.73315C16.6974 7.58534 17.1784 8.74127 17.1784 9.9394C17.1784 12.4453 15.1449 14.521 12.639 14.521ZM45.8912 43.2H38.0696V30.915C38.0696 27.9872 38.0105 24.2325 33.9943 24.2325C29.919 24.2325 29.2946 27.4135 29.2946 30.7041V43.2H21.4646V17.9635H28.9824V21.406H29.0921C30.1384 19.4231 32.6949 17.3306 36.5087 17.3306C44.4399 17.3306 45.8996 22.5535 45.8996 29.3372V43.2H45.8912Z" fill="#FFFBF3"/>
</svg>
