<svg width="54" height="54" viewBox="0 0 54 54" fill="none" xmlns="http://www.w3.org/2000/svg">
<path d="M16.5624 43.1999H8.72398V17.9633H16.5624V43.1999ZM12.639 14.5208C10.133 14.5208 8.09961 12.4452 8.09961 9.93928C8.09961 8.73271 8.58055 7.58521 9.43273 6.73303C10.2849 5.88084 11.4409 5.3999 12.639 5.3999C13.8371 5.3999 14.993 5.88084 15.8452 6.73303C16.6974 7.58521 17.1784 8.74115 17.1784 9.93928C17.1784 12.4452 15.1449 14.5208 12.639 14.5208ZM45.8912 43.1999H38.0696V30.9149C38.0696 27.9871 38.0105 24.2324 33.9943 24.2324C29.919 24.2324 29.2946 27.4133 29.2946 30.704V43.1999H21.4646V17.9633H28.9824V21.4058H29.0921C30.1384 19.423 32.6949 17.3305 36.5087 17.3305C44.4399 17.3305 45.8996 22.5533 45.8996 29.3371V43.1999H45.8912Z" fill="#C5A7DF"/>
</svg>
